<svg id="visual" viewBox="0 0 900 600" width="900" height="600" xmlns="http://www.w3.org/2000/svg" xmlns:xlink="http://www.w3.org/1999/xlink" version="1.1"><rect x="0" y="0" width="900" height="600" fill="#001220"></rect><path d="M0 265L21.5 255C43 245 86 225 128.8 207C171.7 189 214.3 173 257.2 174.7C300 176.3 343 195.7 385.8 198.8C428.7 202 471.3 189 514.2 184.3C557 179.7 600 183.3 642.8 184C685.7 184.7 728.3 182.3 771.2 186.3C814 190.3 857 200.7 878.5 205.8L900 211L900 601L878.5 601C857 601 814 601 771.2 601C728.3 601 685.7 601 642.8 601C600 601 557 601 514.2 601C471.3 601 428.7 601 385.8 601C343 601 300 601 257.2 601C214.3 601 171.7 601 128.8 601C86 601 43 601 21.5 601L0 601Z" fill="#4facf7"></path><path d="M0 222L21.5 236.7C43 251.3 86 280.7 128.8 280C171.7 279.3 214.3 248.7 257.2 250.3C300 252 343 286 385.8 293.3C428.7 300.7 471.3 281.3 514.2 251.3C557 221.3 600 180.7 642.8 170C685.7 159.3 728.3 178.7 771.2 191.3C814 204 857 210 878.5 213L900 216L900 601L878.5 601C857 601 814 601 771.2 601C728.3 601 685.7 601 642.8 601C600 601 557 601 514.2 601C471.3 601 428.7 601 385.8 601C343 601 300 601 257.2 601C214.3 601 171.7 601 128.8 601C86 601 43 601 21.5 601L0 601Z" fill="#01a3d6"></path><path d="M0 259L21.5 261.3C43 263.7 86 268.3 128.8 261.2C171.7 254 214.3 235 257.2 227.8C300 220.7 343 225.3 385.8 230.2C428.7 235 471.3 240 514.2 249.2C557 258.3 600 271.7 642.8 270C685.7 268.3 728.3 251.7 771.2 237C814 222.3 857 209.7 878.5 203.3L900 197L900 601L878.5 601C857 601 814 601 771.2 601C728.3 601 685.7 601 642.8 601C600 601 557 601 514.2 601C471.3 601 428.7 601 385.8 601C343 601 300 601 257.2 601C214.3 601 171.7 601 128.8 601C86 601 43 601 21.5 601L0 601Z" fill="#0097b0"></path><path d="M0 220L21.5 226.5C43 233 86 246 128.8 253.2C171.7 260.3 214.3 261.7 257.2 259.8C300 258 343 253 385.8 253.7C428.7 254.3 471.3 260.7 514.2 258.5C557 256.3 600 245.7 642.8 244.5C685.7 243.3 728.3 251.7 771.2 274.3C814 297 857 334 878.5 352.5L900 371L900 601L878.5 601C857 601 814 601 771.2 601C728.3 601 685.7 601 642.8 601C600 601 557 601 514.2 601C471.3 601 428.7 601 385.8 601C343 601 300 601 257.2 601C214.3 601 171.7 601 128.8 601C86 601 43 601 21.5 601L0 601Z" fill="#00888a"></path><path d="M0 285L21.5 290.2C43 295.3 86 305.7 128.8 314.7C171.7 323.7 214.3 331.3 257.2 327.5C300 323.7 343 308.3 385.8 295.3C428.7 282.3 471.3 271.7 514.2 276.8C557 282 600 303 642.8 321.3C685.7 339.7 728.3 355.3 771.2 360C814 364.7 857 358.3 878.5 355.2L900 352L900 601L878.5 601C857 601 814 601 771.2 601C728.3 601 685.7 601 642.8 601C600 601 557 601 514.2 601C471.3 601 428.7 601 385.8 601C343 601 300 601 257.2 601C214.3 601 171.7 601 128.8 601C86 601 43 601 21.5 601L0 601Z" fill="#00775d"></path><path d="M0 408L21.5 403.5C43 399 86 390 128.8 376.8C171.7 363.7 214.3 346.3 257.2 346.3C300 346.3 343 363.7 385.8 372.3C428.7 381 471.3 381 514.2 369C557 357 600 333 642.8 330.8C685.7 328.7 728.3 348.3 771.2 350.8C814 353.3 857 338.7 878.5 331.3L900 324L900 601L878.5 601C857 601 814 601 771.2 601C728.3 601 685.7 601 642.8 601C600 601 557 601 514.2 601C471.3 601 428.7 601 385.8 601C343 601 300 601 257.2 601C214.3 601 171.7 601 128.8 601C86 601 43 601 21.5 601L0 601Z" fill="#01704b"></path><path d="M0 373L21.5 382.3C43 391.7 86 410.3 128.8 410C171.7 409.7 214.3 390.3 257.2 379.7C300 369 343 367 385.8 369.3C428.7 371.7 471.3 378.3 514.2 391C557 403.7 600 422.3 642.8 421C685.7 419.7 728.3 398.3 771.2 393.5C814 388.7 857 400.3 878.5 406.2L900 412L900 601L878.5 601C857 601 814 601 771.2 601C728.3 601 685.7 601 642.8 601C600 601 557 601 514.2 601C471.3 601 428.7 601 385.8 601C343 601 300 601 257.2 601C214.3 601 171.7 601 128.8 601C86 601 43 601 21.5 601L0 601Z" fill="#01704b"></path><path d="M0 436L21.5 438.8C43 441.7 86 447.3 128.8 447.3C171.7 447.3 214.3 441.7 257.2 437.5C300 433.3 343 430.7 385.8 421.5C428.7 412.3 471.3 396.7 514.2 388.2C557 379.7 600 378.3 642.8 384.8C685.7 391.3 728.3 405.7 771.2 419C814 432.3 857 444.7 878.5 450.8L900 457L900 601L878.5 601C857 601 814 601 771.2 601C728.3 601 685.7 601 642.8 601C600 601 557 601 514.2 601C471.3 601 428.7 601 385.8 601C343 601 300 601 257.2 601C214.3 601 171.7 601 128.8 601C86 601 43 601 21.5 601L0 601Z" fill="#00775d"></path><path d="M0 457L21.5 453.2C43 449.3 86 441.7 128.8 436.8C171.7 432 214.3 430 257.2 436.2C300 442.3 343 456.7 385.8 462.3C428.7 468 471.3 465 514.2 458.5C557 452 600 442 642.8 437.8C685.7 433.7 728.3 435.3 771.2 439.3C814 443.3 857 449.7 878.5 452.8L900 456L900 601L878.5 601C857 601 814 601 771.2 601C728.3 601 685.7 601 642.8 601C600 601 557 601 514.2 601C471.3 601 428.7 601 385.8 601C343 601 300 601 257.2 601C214.3 601 171.7 601 128.8 601C86 601 43 601 21.5 601L0 601Z" fill="#00888a"></path><path d="M0 452L21.5 459.3C43 466.7 86 481.3 128.8 493.5C171.7 505.7 214.3 515.3 257.2 513.3C300 511.3 343 497.7 385.8 496.5C428.7 495.3 471.3 506.7 514.2 506.3C557 506 600 494 642.8 493.2C685.7 492.3 728.3 502.7 771.2 506.7C814 510.7 857 508.3 878.5 507.2L900 506L900 601L878.5 601C857 601 814 601 771.2 601C728.3 601 685.7 601 642.8 601C600 601 557 601 514.2 601C471.3 601 428.7 601 385.8 601C343 601 300 601 257.2 601C214.3 601 171.7 601 128.8 601C86 601 43 601 21.5 601L0 601Z" fill="#0097b0"></path><path d="M0 537L21.5 536.3C43 535.7 86 534.3 128.8 529.2C171.7 524 214.3 515 257.2 514.8C300 514.7 343 523.3 385.8 526.7C428.7 530 471.3 528 514.2 525.5C557 523 600 520 642.8 515.5C685.7 511 728.3 505 771.2 502.2C814 499.3 857 499.7 878.5 499.8L900 500L900 601L878.5 601C857 601 814 601 771.2 601C728.3 601 685.7 601 642.8 601C600 601 557 601 514.2 601C471.3 601 428.7 601 385.8 601C343 601 300 601 257.2 601C214.3 601 171.7 601 128.8 601C86 601 43 601 21.5 601L0 601Z" fill="#01a3d6"></path><path d="M0 539L21.5 537.5C43 536 86 533 128.8 536C171.7 539 214.3 548 257.2 554.8C300 561.7 343 566.3 385.8 568C428.7 569.7 471.3 568.3 514.2 564.5C557 560.7 600 554.3 642.8 549.2C685.7 544 728.3 540 771.2 544C814 548 857 560 878.5 566L900 572L900 601L878.5 601C857 601 814 601 771.2 601C728.3 601 685.7 601 642.8 601C600 601 557 601 514.2 601C471.3 601 428.7 601 385.8 601C343 601 300 601 257.2 601C214.3 601 171.7 601 128.8 601C86 601 43 601 21.5 601L0 601Z" fill="#4facf7"></path></svg>